<svg xmlns="http://www.w3.org/2000/svg" xml:space="preserve" width="1500" height="1500" data-id="lg_FIDDy9zQPZWHdPdSOn" data-version="1" viewBox="0 0 1500 1500"><path fill="#3b3b3b" stroke="transparent" d="M0 0h1500v1500H0z"/><g data-padding="20"><g transform="translate(-573.792 -588.545)scale(1.7249)"><rect width="492" height="98.31" x="109.213" y="326.746" fill="none" rx="0" ry="0" transform="translate(445.51 400.11)"/><path fill="#fff" d="m638.863 746.511-4.78 7.39q-3.22-2-6.96-3.48t-7.22-1.65q-2.7-.09-4.66.48-1.95.56-3.3 1.61-1.35 1.04-2.05 2.43-.69 1.39-.87 2.96-.17 2.52 1.44 4.52 1.61 2.01 4.39 3.61 2.79 1.61 5.83 3.01 3.65 1.56 6.96 3.87 3.31 2.3 5.22 5.91t1.31 9.36q-.35 3.39-2.01 6.61-1.65 3.22-4.52 5.7t-7 3.82q-4.14 1.35-9.53 1.09-3.91-.17-7.61-1.17t-6.96-2.7-6.05-4.13l5.4-7.57q2 1.74 4.56 3.22 2.57 1.48 5.4 2.39 2.82.91 5.52 1.09 3.13 0 5.79-.96 2.65-.96 4.43-2.96 1.79-2 2.05-4.96.26-2.52-1.13-4.43-1.39-1.92-3.66-3.44-2.26-1.52-4.96-2.74-2.78-1.3-5.65-2.87t-5.26-3.7q-2.4-2.13-3.66-5.17-1.26-3.05-.82-7.14.6-5.31 3.39-9.09 2.78-3.78 7.35-5.74t10.22-1.87q4.53.17 8.05 1.17t6.31 2.39q2.78 1.4 5.04 3.14m25.31 57.68q-3.91 0-7.66-1.83-3.74-1.83-5.39-4.7l2.26-2.52-2.87 25.75h-9.66l6.88-55.16h8.44l-.09 8.53-2.09-2.61q3.74-3.05 7.92-4.96 4.17-1.91 8.09-1.91 4.7 0 8.57 2.08 3.87 2.09 6.18 5.83 2.3 3.74 2.3 8.79 0 6-2.83 11.18-2.82 5.18-7.96 8.35-5.13 3.18-12.09 3.18m-.26-8.18q4 0 6.96-1.83 2.96-1.82 4.61-4.83 1.65-3 1.65-6.39 0-3.05-1.48-5.44-1.47-2.39-3.87-3.7-2.39-1.3-5.17-1.3-2.53 0-4.7.96-2.18.95-3.92 2.69t-2.95 4.18l-.87 7.66q.34 1.47 1.08 2.87.74 1.39 1.92 2.56 1.17 1.18 2.82 1.87 1.66.7 3.92.7m30.97 7.22 4.53-36.8h9.74l-4.52 36.8Zm5.22-49.42q.09-2.26 1.74-3.87t4.18-1.61q1.91 0 3.65 1.13 1.74 1.14 1.74 3.66-.09 2.35-1.74 3.96t-4.17 1.61q-1.83 0-3.62-1.18-1.78-1.17-1.78-3.7m44.72 40.55 4.18 6.43q-2.53 1.57-5.88 2.53-3.35.95-6.74.95-2.61 0-5.87-.87t-6.35-2.87-5.05-5.43q-1.96-3.44-1.96-8.57 0-3.74 1.35-7.44t3.92-6.74q2.56-3.05 6.39-4.88 3.83-1.82 8.88-1.82 5.3 0 9.04 1.56 3.74 1.57 6.18 4.09l-5.57 5.92q-1.3-1.31-3.61-2.44-2.3-1.13-5.44-1.13-2.87 0-5.48 1.61t-4.22 4.35-1.61 6.22q0 2.96 1.4 5.31 1.39 2.35 3.87 3.78 2.48 1.44 5.87 1.44 1.91 0 3.61-.52 1.7-.53 3.09-1.48m34.1 1.48q1.92 0 3.79-.7t3.61-1.74l3.48 7.57q-2.7 1.48-5.83 2.3-3.13.83-6.09.83-5.92 0-10.35-2.13-4.44-2.13-6.92-6.35t-2.48-10.31q0-3.48 1.31-7.05 1.3-3.57 3.91-6.57t6.7-4.87 9.57-1.87q3.22 0 6.31.83 3.09.82 5.61 2.82 2.52 2.01 4.35 5.44 1.83 3.44 2.52 8.75l-30.71 8.17-1.57-5.65 25.32-6.96-3.39 1.22q-.87-3.22-3.22-5.14-2.35-1.91-5.57-1.91-3.74 0-6.26 1.65-2.53 1.66-3.83 4.35-1.31 2.7-1.31 5.66 0 4.26 1.66 6.83 1.65 2.56 4.17 3.69 2.53 1.14 5.22 1.14m72.31-49.33-4.78 7.39q-3.22-2-6.96-3.48-3.75-1.48-7.23-1.65-2.69-.09-4.65.48-1.96.56-3.31 1.61-1.34 1.04-2.04 2.43t-.87 2.96q-.17 2.52 1.43 4.52 1.61 2.01 4.4 3.61 2.78 1.61 5.83 3.01 3.65 1.56 6.96 3.87 3.3 2.3 5.22 5.91 1.91 3.61 1.3 9.36-.35 3.39-2 6.61t-4.52 5.7-7.01 3.82q-4.13 1.35-9.52 1.09-3.92-.17-7.62-1.17-3.69-1-6.96-2.7-3.26-1.7-6.04-4.13l5.39-7.57q2 1.74 4.57 3.22t5.39 2.39q2.83.91 5.53 1.09 3.13 0 5.78-.96 2.66-.96 4.44-2.96t2.05-4.96q.26-2.52-1.14-4.43-1.39-1.92-3.65-3.44t-4.96-2.74q-2.78-1.3-5.65-2.87t-5.27-3.7q-2.39-2.13-3.65-5.17-1.26-3.05-.83-7.14.61-5.31 3.4-9.09 2.78-3.78 7.35-5.74 4.56-1.96 10.22-1.87 4.52.17 8.05 1.17 3.52 1 6.3 2.39 2.79 1.4 5.05 3.14m38.27 57.85h-.61l-8.61-24.36-13.4 24.27h-.61l-12-37.84h9.57l7.48 23.05-3.4-.6 9.92-17.06-1.82-5.39h8.35l7.04 21.75-1.91.17 11.57-21.92h9.57Zm39.76-.35q-3.92 0-7.53-2.13t-5.83-6.18q-2.21-4.04-2.21-9.61 0-3.91 1.39-7.65 1.39-3.75 4.09-6.83 2.69-3.09 6.52-4.96t8.62-1.87q3.82 0 6.43 1t4.27 2.61q1.65 1.61 2.69 3.61l-.78 1.65 1.91-7.22h8.97l-4.44 36.8h-9.75l1.05-8.79.61 2.35q-.35.44-1.57 1.61-1.22 1.18-3.22 2.48-2 1.31-4.83 2.22-2.82.91-6.39.91m5.39-7.83q2.27 0 4.31-.91t3.7-2.61q1.65-1.7 2.69-4.05l.96-8q-.43-2.35-1.83-4.13-1.39-1.79-3.56-2.74-2.18-.96-4.87-.96-3.4 0-5.7 1.17-2.31 1.18-3.79 3.05t-2.13 3.96-.65 4q0 3.31 1.35 5.83t3.82 3.96q2.48 1.43 5.7 1.43m53.25 8.01q-3.92 0-7.66-1.83t-5.39-4.7l2.26-2.52-2.87 25.75h-9.66l6.87-55.16h8.44l-.08 8.53-2.09-2.61q3.74-3.05 7.92-4.96 4.17-1.91 8.09-1.91 4.69 0 8.57 2.08 3.87 2.09 6.17 5.83 2.31 3.74 2.31 8.79 0 6-2.83 11.18t-7.96 8.35q-5.13 3.18-12.09 3.18m-.26-8.18q4 0 6.96-1.83 2.95-1.82 4.61-4.83 1.65-3 1.65-6.39 0-3.05-1.48-5.44t-3.87-3.7q-2.39-1.3-5.18-1.3-2.52 0-4.69.96-2.18.95-3.92 2.69t-2.96 4.18l-.87 7.66q.35 1.47 1.09 2.87.74 1.39 1.91 2.56 1.18 1.18 2.83 1.87 1.65.7 3.92.7m-436.81-55.21h-6.48v-6.48a2.16 2.16 0 0 0-2.16-2.16h-47.52a6.48 6.48 0 0 0-6.48 6.48v73.44a6.48 6.48 0 0 0 6.48 6.48h56.16a2.16 2.16 0 0 0 2.16-2.16v-73.44a2.16 2.16 0 0 0-2.16-2.16m-56.16-4.32h45.36v4.32h-45.36a2.16 2.16 0 0 1 0-4.32m54 77.76h-54a2.16 2.16 0 0 1-2.16-2.16v-67.36a6.5 6.5 0 0 0 2.16.4h54Z"/><path fill="#fff" d="M524.913 753.761a2.16 2.16 0 0 0-2.16 2.16v47.52a2.16 2.16 0 1 0 4.32 0v-19.44h10.8a2.16 2.16 0 0 0 2.16-2.16v-12.96c0-8.35-6.77-15.12-15.12-15.12m10.8 25.92h-8.64v-21.384a10.8 10.8 0 0 1 8.64 10.584Zm-25.92-25.92c-5.562 0-8.64 8.942-8.64 15.12 0 6.556 3.143 9.59 6.48 10.476v24.084a2.16 2.16 0 1 0 4.32 0v-24.084c3.337-.886 6.48-3.92 6.48-10.476 0-6.178-3.078-15.12-8.64-15.12m0 21.6c-3.758 0-4.32-4.06-4.32-6.48 0-5.908 2.862-10.8 4.32-10.8s4.32 4.892 4.32 10.8c0 2.42-.562 6.48-4.32 6.48"/></g><path fill="transparent" stroke="transparent" stroke-width="1.789" d="M250 662.343h1000v175.314H250z"/></g></svg>